<?xml version="1.0" encoding="UTF-8"?>
<!DOCTYPE svg PUBLIC "-//W3C//DTD SVG 1.1//EN" "http://www.w3.org/Graphics/SVG/1.1/DTD/svg11.dtd">
<svg xmlns="http://www.w3.org/2000/svg" version="1.1" width="128px" height="128px" style="shape-rendering:geometricPrecision; text-rendering:geometricPrecision; image-rendering:optimizeQuality; fill-rule:evenodd; clip-rule:evenodd" xmlns:xlink="http://www.w3.org/1999/xlink">
<g><path style="opacity:0.924" fill="#000000" d="M 29.5,7.5 C 34.4116,7.06311 39.0783,7.89644 43.5,10C 50.3754,16.7078 57.0421,23.5411 63.5,30.5C 70.3764,22.7894 77.7097,15.6227 85.5,9C 93.5541,6.04129 100.554,7.54129 106.5,13.5C 92.5071,29.4923 78.1737,45.1589 63.5,60.5C 49.1776,45.3429 35.0109,30.0096 21,14.5C 20.3828,13.5509 20.5494,12.7175 21.5,12C 24.0993,10.205 26.7659,8.70496 29.5,7.5 Z"/></g>
<g><path style="opacity:0.929" fill="#e47000" d="M -0.5,100.5 C -0.5,99.5 -0.5,98.5 -0.5,97.5C 10.521,86.8115 20.8543,75.4782 30.5,63.5C 20.8543,51.5218 10.521,40.1885 -0.5,29.5C -0.5,28.5 -0.5,27.5 -0.5,26.5C 12.3935,18.5134 23.5601,20.5134 33,32.5C 41.981,42.982 51.1476,53.3153 60.5,63.5C 49.3872,76.7821 37.7206,89.6155 25.5,102C 16.4679,106.995 7.80126,106.495 -0.5,100.5 Z"/></g>
<g><path style="opacity:0.929" fill="#e47000" d="M 127.5,26.5 C 127.5,27.5 127.5,28.5 127.5,29.5C 116.479,40.1885 106.146,51.5218 96.5,63.5C 106.146,75.4782 116.479,86.8115 127.5,97.5C 127.5,98.5 127.5,99.5 127.5,100.5C 119.199,106.495 110.532,106.995 101.5,102C 89.2794,89.6155 77.6128,76.7821 66.5,63.5C 77.9729,49.5271 90.3062,36.3605 103.5,24C 111.979,20.2265 119.979,21.0598 127.5,26.5 Z"/></g>
<g><path style="opacity:0.924" fill="#000000" d="M 62.5,66.5 C 64.371,66.8588 65.871,67.8588 67,69.5C 80,83.8333 93,98.1667 106,112.5C 106.617,113.449 106.451,114.282 105.5,115C 99.3857,119.569 92.719,120.569 85.5,118C 77.6562,111.322 70.3228,104.156 63.5,96.5C 56.6236,104.211 49.2903,111.377 41.5,118C 33.9701,120.706 27.1368,119.539 21,114.5C 20.3333,113.833 20.3333,113.167 21,112.5C 35.0404,97.296 48.8738,81.9627 62.5,66.5 Z"/></g>
</svg>
